#!OML:ASF F:\VICON\USERDATA\INSTALL\rory3\rory3.ASF
:FULLY-SPECIFIED
:DEGREES
367
root 1.08196 17.7553 39.8242 -4.2871 -3.38704 1.50086
lowerback 10.5498 0.172344 -0.646097
upperback 0.991379 0.199152 0.90554
thorax -4.88832 0.119469 1.27978
lowerneck -14.7281 -2.19047 -2.8097
upperneck 21.2684 -2.41651 0.215589
head 9.15261 -1.337 0.248776
rclavicle -7.70291e-016 -2.66371e-014
rhumerus -27.2664 -20.3122 -79.7085
rradius 25.3607
rwrist 4.81177
rhand -17.8842 22.5993
rfingers 7.12502
rthumb 8.38211 -7.21433
lclavicle -7.70291e-016 -2.66371e-014
lhumerus -29.8027 6.21301 80.3808
lradius 21.8391
lwrist 4.21116
lhand -26.0415 23.9605
lfingers 7.12502
lthumb 0.505622 53.9396
rfemur -26.334 -0.887197 20.1599
rtibia 74.0013
rfoot -6.92024 -6.86249
rtoes 5.34943
lfemur -5.99097 -2.91096 -26.6603
ltibia 30.3984
lfoot -15.5533 -1.38311
ltoes 0.67522
368
root 1.07851 17.749 39.9909 -4.26684 -2.94404 1.783
lowerback 10.4138 -0.0504759 -1.03771
upperback 1.18198 -0.141908 0.909455
thorax -4.60273 -0.0442327 1.5527
lowerneck -15.0644 -2.15579 -2.79599
upperneck 21.2333 -2.33961 0.128171
head 9.20031 -1.30859 0.222591
rclavicle -1.2424e-015 1.59028e-015
rhumerus -27.336 -20.1981 -79.7106
rradius 25.8589
rwrist 5.73368
rhand -17.5892 21.6057
rfingers 7.12502
rthumb 8.6668 -8.19644
lclavicle -1.2424e-015 1.59028e-015
lhumerus -28.998 5.80091 80.5089
lradius 21.7234
lwrist 2.2236
lhand -26.7332 22.9718
lfingers 7.12502
lthumb -0.16244 52.9515
rfemur -27.1446 -1.37072 19.8702
rtibia 72.6482
rfoot -7.60356 -6.87531
rtoes 4.89324
lfemur -5.24529 -2.87456 -27.0664
ltibia 30.2036
lfoot -16.0222 -1.21267
ltoes -1.4821
369
root 1.07308 17.7375 40.1483 -4.21236 -2.72547 1.65143
lowerback 10.5593 -0.154693 -0.915258
upperback 1.19618 -0.263063 0.990732
thorax -4.66493 -0.105231 1.58667
lowerneck -15.2064 -2.21721 -2.94162
upperneck 21.3058 -2.38567 0.137038
head 9.25505 -1.34092 0.242186
rclavicle 5.7896e-015 -1.07344e-014
rhumerus -27.566 -20.0442 -79.6264
rradius 25.8488
rwrist 5.7174
rhand -17.5314 21.751
rfingers 7.12502
rthumb 8.72258 -8.04879
lclavicle 5.7896e-015 -1.07344e-014
lhumerus -28.234 5.08644 80.7307
lradius 21.853
lwrist 2.68566
lhand -26.9381 21.9953
lfingers 7.12502
lthumb -0.360274 51.9748
rfemur -27.9491 -1.54915 20.1157
rtibia 71.0967
rfoot -8.41025 -7.02659
rtoes 4.32529
lfemur -4.48222 -2.87901 -26.9622
ltibia 30.0621
lfoot -16.5382 -1.06068
ltoes -2.13665
370
root 1.06314 17.7426 40.3082 -4.15232 -2.56986 1.6707
lowerback 10.8612 -0.224208 -1.09014
upperback 1.00691 -0.373587 1.05868
thorax -5.02612 -0.151398 1.77682
lowerneck -14.9819 -2.31975 -3.15669
upperneck 21.338 -2.52957 0.331728
head 9.23306 -1.405 0.329043
rclavicle 1.36664e-015 1.98785e-015
rhumerus -28.3606 -19.2143 -79.6388
rradius 26.2208
rwrist 4.56798
rhand -17.4905 21.8637
rfingers 7.12502
rthumb 8.76205 -7.93441
lclavicle 1.36664e-015 1.98785e-015
lhumerus -27.692 4.65763 80.6811
lradius 23.1173
lwrist 6.0621
lhand -23.4422 28.3194
lfingers 7.12502
lthumb 3.0161 58.2778
rfemur -28.7322 -1.61287 20.2284
rtibia 69.3504
rfoot -8.90354 -7.34686
rtoes 3.14885
lfemur -3.78436 -2.86325 -26.9984
ltibia 29.8526
lfoot -16.7926 -1.07869
ltoes -0.551369
371
root 1.05032 17.7434 40.465 -3.97689 -2.41587 2.00147
lowerback 10.935 -0.307953 -1.61477
upperback 0.847803 -0.550604 1.02893
thorax -5.22291 -0.224176 2.07101
lowerneck -14.6217 -2.2391 -3.15514
upperneck 21.1152 -2.43724 0.359138
head 9.08763 -1.35878 0.354431
rclavicle -6.70898e-015 -3.57812e-015
rhumerus -29.0591 -18.6318 -79.6835
rradius 26.6377
rwrist 4.01004
rhand -17.6577 22.0885
rfingers 7.12502
rthumb 8.60071 -7.71627
lclavicle -6.70898e-015 -3.57812e-015
lhumerus -27.4145 3.36172 81.0161
lradius 22.661
lwrist 4.19347
lhand -27.3601 24.0971
lfingers 7.12502
lthumb -0.767866 54.0755
rfemur -29.6622 -1.7283 19.9902
rtibia 67.5097
rfoot -9.27174 -7.70544
rtoes 2.23349
lfemur -3.34483 -2.89513 -27.3878
ltibia 29.6334
lfoot -16.8293 -1.06983
ltoes 0.78328
372
root 1.03828 17.7538 40.6201 -3.73982 -2.29347 1.96432
lowerback 10.7106 -0.425413 -1.77423
upperback 0.936448 -0.718971 1.10033
thorax -4.99371 -0.306723 2.25678
lowerneck -14.3881 -2.03592 -2.80295
upperneck 20.6926 -2.17567 0.0482103
head 8.88562 -1.24007 0.225948
rclavicle 8.74653e-015 7.15625e-015
rhumerus -29.0874 -18.7903 -79.6967
rradius 26.5591
rwrist 4.44484
rhand -17.4673 22.3044
rfingers 7.12502
rthumb 8.78437 -7.49275
lclavicle 8.74653e-015 7.15625e-015
lhumerus -26.5536 2.508 81.1555
lradius 22.4934
lwrist 3.65048
lhand -29.1777 20.5658
lfingers 7.12502
lthumb -2.52333 50.5306
rfemur -30.4718 -1.61354 20.1572
rtibia 65.4285
rfoot -10.1311 -8.10729
rtoes 0.302702
lfemur -2.87616 -2.72534 -27.3243
ltibia 29.2545
lfoot -16.8861 -1.23759
ltoes 1.85272
373
root 1.02576 17.7514 40.786 -3.60156 -2.28859 1.92005
lowerback 10.5425 -0.464077 -1.95212
upperback 1.07271 -0.783343 1.20322
thorax -4.74997 -0.338734 2.46992
lowerneck -14.6528 -2.17228 -3.00115
upperneck 20.5123 -2.37139 0.328078
head 8.88164 -1.3156 0.328515
rclavicle -1.44119e-015 7.95139e-016
rhumerus -29.0794 -19.067 -79.5876
rradius 26.3002
rwrist 4.76382
rhand -17.1233 22.7111
rfingers 7.12502
rthumb 9.11638 -7.07186
lclavicle -1.44119e-015 7.95139e-016
lhumerus -25.5856 1.66099 81.2987
lradius 22.511
lwrist 4.18464
lhand -29.9876 18.6656
lfingers 7.12502
lthumb -3.3055 48.6197
rfemur -31.0456 -1.44326 20.3281
rtibia 63.2186
rfoot -10.8523 -8.32976
rtoes -2.33638
lfemur -2.13681 -2.55582 -27.2938
ltibia 28.6719
lfoot -17.0028 -1.19052
ltoes 1.63035
374
root 1.01579 17.7526 40.9506 -3.5409 -2.16379 2.08556
lowerback 10.6625 -0.533464 -2.30419
upperback 1.05508 -0.915349 1.27234
thorax -4.8213 -0.395063 2.76283
lowerneck -14.5443 -2.05902 -3.06127
upperneck 20.434 -2.17819 0.218391
head 8.83128 -1.24125 0.325797
rclavicle 1.70706e-014 9.54166e-015
rhumerus -29.4964 -18.484 -79.5554
rradius 26.4651
rwrist 4.15611
rhand -17.2393 23.0465
rfingers 7.12502
rthumb 9.00448 -6.74131
lclavicle 1.70706e-014 9.54166e-015
lhumerus -25.0369 0.691397 81.4731
lradius 22.868
lwrist 4.80145
lhand -29.5103 20.6442
lfingers 7.12502
lthumb -2.84449 50.605
rfemur -31.4374 -1.40355 20.1783
rtibia 60.8415
rfoot -10.7106 -8.66581
rtoes -1.29283
lfemur -1.18098 -2.47323 -27.515
ltibia 27.7624
lfoot -16.9804 -1.21794
ltoes 0.830893
